<?xml version="1.0" encoding="UTF-8"?>
<svg id="Layer_2" data-name="Layer 2" xmlns="http://www.w3.org/2000/svg" viewBox="0 0 141.97 141.97">
  <defs>
    <style>
      .cls-1 {
        fill: none;
      }

      .cls-1, .cls-2 {
        stroke-width: 0px;
      }

      .cls-2 {
        fill: #f8991d;
      }
    </style>
  </defs>
  <g id="noots_sucks">
    <rect class="cls-1" width="141.97" height="141.97"/>
    <g>
      <rect class="cls-2" x="49.03" y="0" width="43.9" height="16.09" rx="4.92" ry="4.92"/>
      <rect class="cls-2" x="118.77" y="20.01" width="16.09" height="24.79" rx="4.92" ry="4.92" transform="translate(14.23 99.16) rotate(-45)"/>
      <g>
        <path class="cls-2" d="M115.45,77.56c-3.14-21.74-21.88-38.49-44.48-38.49s-41.34,16.76-44.48,38.49h-13.11c3.21-28.97,27.76-51.5,57.59-51.5,29.82,0,54.38,22.53,57.59,51.5h-13.11Z"/>
        <path class="cls-2" d="M26.5,90.47c3.14,21.74,21.88,38.49,44.48,38.49,22.59,0,41.34-16.76,44.48-38.49h13.11c-3.21,28.97-27.76,51.5-57.59,51.5s-54.38-22.53-57.59-51.5h13.11Z"/>
      </g>
      <path class="cls-2" d="M70.98,53.88c14.43,0,26.48,10.14,29.44,23.68h-29.44v-23.68Z"/>
      <path class="cls-2" d="M70.98,90.47h29.44c-2.96,13.54-15.01,23.69-29.44,23.69-6.56,0-12.62-2.1-17.56-5.65l17.56-18.03Z"/>
    </g>
  </g>
</svg>